<mxfile host="app.diagrams.net" modified="2023-02-14T10:44:21.465Z" agent="5.0 (Windows NT 10.0; Win64; x64) AppleWebKit/537.36 (KHTML, like Gecko) Chrome/101.0.0.0 Safari/537.36" etag="2dv4uHb8L4vwkEDggd5X" version="20.8.20" type="github">
  <diagram id="C5RBs43oDa-KdzZeNtuy" name="Page-1">
    <mxGraphModel dx="1050" dy="541" grid="1" gridSize="10" guides="1" tooltips="1" connect="1" arrows="1" fold="1" page="1" pageScale="1" pageWidth="827" pageHeight="1169" math="0" shadow="0">
      <root>
        <mxCell id="WIyWlLk6GJQsqaUBKTNV-0" />
        <mxCell id="WIyWlLk6GJQsqaUBKTNV-1" parent="WIyWlLk6GJQsqaUBKTNV-0" />
        <mxCell id="x1c84HoS_QJddhZzWABF-46" style="edgeStyle=orthogonalEdgeStyle;rounded=0;orthogonalLoop=1;jettySize=auto;html=1;exitX=0.5;exitY=1;exitDx=0;exitDy=0;entryX=0.5;entryY=0;entryDx=0;entryDy=0;" parent="WIyWlLk6GJQsqaUBKTNV-1" source="x1c84HoS_QJddhZzWABF-47" target="x1c84HoS_QJddhZzWABF-49" edge="1">
          <mxGeometry relative="1" as="geometry" />
        </mxCell>
        <mxCell id="x1c84HoS_QJddhZzWABF-47" value="敏感数据" style="rounded=1;whiteSpace=wrap;html=1;fontSize=12;glass=0;strokeWidth=1;shadow=0;" parent="WIyWlLk6GJQsqaUBKTNV-1" vertex="1">
          <mxGeometry x="374" y="70" width="80" height="30" as="geometry" />
        </mxCell>
        <mxCell id="ffdPrWQ0kvdA3-DpdYnM-21" style="edgeStyle=orthogonalEdgeStyle;rounded=0;orthogonalLoop=1;jettySize=auto;html=1;exitX=0.5;exitY=1;exitDx=0;exitDy=0;entryX=0.499;entryY=-0.013;entryDx=0;entryDy=0;entryPerimeter=0;" edge="1" parent="WIyWlLk6GJQsqaUBKTNV-1" source="x1c84HoS_QJddhZzWABF-49" target="ffdPrWQ0kvdA3-DpdYnM-13">
          <mxGeometry relative="1" as="geometry" />
        </mxCell>
        <mxCell id="x1c84HoS_QJddhZzWABF-49" value="数据加密模块" style="rounded=1;whiteSpace=wrap;html=1;fontSize=12;glass=0;strokeWidth=1;shadow=0;" parent="WIyWlLk6GJQsqaUBKTNV-1" vertex="1">
          <mxGeometry x="374" y="130" width="80" height="30" as="geometry" />
        </mxCell>
        <mxCell id="ffdPrWQ0kvdA3-DpdYnM-23" style="edgeStyle=orthogonalEdgeStyle;rounded=0;orthogonalLoop=1;jettySize=auto;html=1;exitX=0;exitY=0.5;exitDx=0;exitDy=0;entryX=1;entryY=0.5;entryDx=0;entryDy=0;" edge="1" parent="WIyWlLk6GJQsqaUBKTNV-1" source="ffdPrWQ0kvdA3-DpdYnM-0" target="ffdPrWQ0kvdA3-DpdYnM-1">
          <mxGeometry relative="1" as="geometry">
            <Array as="points">
              <mxPoint x="420" y="255" />
              <mxPoint x="420" y="235" />
            </Array>
          </mxGeometry>
        </mxCell>
        <mxCell id="ffdPrWQ0kvdA3-DpdYnM-0" value="密钥管理模块" style="rounded=1;whiteSpace=wrap;html=1;fontSize=12;glass=0;strokeWidth=1;shadow=0;" vertex="1" parent="WIyWlLk6GJQsqaUBKTNV-1">
          <mxGeometry x="429" y="240" width="80" height="30" as="geometry" />
        </mxCell>
        <mxCell id="ffdPrWQ0kvdA3-DpdYnM-16" value="" style="group" vertex="1" connectable="0" parent="WIyWlLk6GJQsqaUBKTNV-1">
          <mxGeometry x="296.5" y="200" width="235" height="160" as="geometry" />
        </mxCell>
        <mxCell id="ffdPrWQ0kvdA3-DpdYnM-22" value="" style="group" vertex="1" connectable="0" parent="ffdPrWQ0kvdA3-DpdYnM-16">
          <mxGeometry width="235" height="160" as="geometry" />
        </mxCell>
        <mxCell id="ffdPrWQ0kvdA3-DpdYnM-15" value="TEE" style="rounded=0;whiteSpace=wrap;html=1;fillColor=none;" vertex="1" parent="ffdPrWQ0kvdA3-DpdYnM-22">
          <mxGeometry y="140" width="235" height="20" as="geometry" />
        </mxCell>
        <mxCell id="ffdPrWQ0kvdA3-DpdYnM-13" value="" style="verticalLabelPosition=bottom;verticalAlign=top;html=1;shape=mxgraph.basic.rect;fillColor2=none;strokeWidth=1;size=20;indent=5;fillColor=none;" vertex="1" parent="ffdPrWQ0kvdA3-DpdYnM-22">
          <mxGeometry width="235" height="140" as="geometry" />
        </mxCell>
        <mxCell id="ffdPrWQ0kvdA3-DpdYnM-20" style="edgeStyle=orthogonalEdgeStyle;rounded=0;orthogonalLoop=1;jettySize=auto;html=1;" edge="1" parent="WIyWlLk6GJQsqaUBKTNV-1" source="ffdPrWQ0kvdA3-DpdYnM-1" target="ffdPrWQ0kvdA3-DpdYnM-2">
          <mxGeometry relative="1" as="geometry" />
        </mxCell>
        <mxCell id="ffdPrWQ0kvdA3-DpdYnM-1" value="数据解密模块" style="rounded=1;whiteSpace=wrap;html=1;fontSize=12;glass=0;strokeWidth=1;shadow=0;" vertex="1" parent="WIyWlLk6GJQsqaUBKTNV-1">
          <mxGeometry x="319" y="220" width="80" height="30" as="geometry" />
        </mxCell>
        <mxCell id="ffdPrWQ0kvdA3-DpdYnM-2" value="数据混淆模块" style="rounded=1;whiteSpace=wrap;html=1;fontSize=12;glass=0;strokeWidth=1;shadow=0;" vertex="1" parent="WIyWlLk6GJQsqaUBKTNV-1">
          <mxGeometry x="319" y="280" width="80" height="30" as="geometry" />
        </mxCell>
        <mxCell id="ffdPrWQ0kvdA3-DpdYnM-25" style="edgeStyle=orthogonalEdgeStyle;rounded=0;orthogonalLoop=1;jettySize=auto;html=1;entryX=1;entryY=0.5;entryDx=0;entryDy=0;" edge="1" parent="WIyWlLk6GJQsqaUBKTNV-1" source="ffdPrWQ0kvdA3-DpdYnM-13" target="x1c84HoS_QJddhZzWABF-49">
          <mxGeometry relative="1" as="geometry">
            <Array as="points">
              <mxPoint x="550" y="280" />
              <mxPoint x="550" y="145" />
            </Array>
          </mxGeometry>
        </mxCell>
      </root>
    </mxGraphModel>
  </diagram>
</mxfile>
